<svg width="795" height="137" viewBox="0 0 795 137" fill="none" xmlns="http://www.w3.org/2000/svg">
<path d="M485.932 0.0134277L440.691 59.0284L414.142 0.0134277H387.374L365.676 136.907H392.444L405.933 51.7324L424.853 93.7107H445.533L477.742 51.7229L464.244 136.897H491.012L512.719 0.0134277H485.932Z" fill="white"/>
<path d="M155.472 99.9785L165.422 37.1204C166.468 31.4035 171.358 27.1799 177.17 26.9802H210.635C215.258 26.7899 219.148 30.3856 219.338 35.0087C219.367 35.7221 219.31 36.426 219.158 37.1299L209.217 99.988C208.171 105.705 203.281 109.928 197.469 110.128H164.005C159.277 110.185 155.396 106.409 155.339 101.681C155.339 101.11 155.377 100.549 155.482 99.988M181.032 0.0124851C160.114 0.735429 142.516 15.9268 138.74 36.5211L128.618 100.407C125.289 116.911 135.962 132.987 152.466 136.325C154.73 136.782 157.032 136.982 159.334 136.915H193.807C214.725 136.192 232.323 121.001 236.099 100.407L246.22 36.5211C249.569 20.0361 238.915 3.96014 222.43 0.611767C220.147 0.145659 217.826 -0.0541018 215.505 0.0124851H181.022H181.032Z" fill="white"/>
<path d="M274.3 99.9785L284.259 37.1109C285.306 31.394 290.195 27.1704 296.007 26.9707H329.472C334.095 26.7804 337.986 30.3761 338.176 34.9992C338.204 35.7126 338.147 36.4165 337.995 37.1204L328.055 99.988C327.008 105.705 322.119 109.928 316.307 110.128H282.842C278.114 110.185 274.233 106.409 274.176 101.681C274.176 101.11 274.214 100.549 274.319 99.988M299.869 0.0125037C278.951 0.735447 261.353 15.9268 257.577 36.5212L247.456 100.407C244.107 116.892 254.761 132.968 271.246 136.316C273.529 136.782 275.85 136.982 278.181 136.915H312.654C333.572 136.192 351.17 121.001 354.946 100.407L365.067 36.5212C368.397 20.0171 357.724 3.94113 341.22 0.602273C338.956 0.145677 336.654 -0.0540832 334.342 0.0125037H299.869Z" fill="white"/>
<path d="M21.6883 0.0127537L0 136.906H26.7679L44.1757 26.9805H91.8329C96.4559 26.7902 100.346 30.3859 100.537 35.0089C100.565 35.7224 100.508 36.4263 100.356 37.1302L96.9506 58.6473C95.9613 64.4023 91.0433 68.6544 85.2027 68.7876H56.2184L43.8332 95.7362H67.5572L84.7651 136.906H115.795L97.0742 92.4925C110.839 86.7185 120.827 74.4855 123.728 59.8459L123.823 59.2371L127.409 36.5214C127.447 36.3217 127.476 36.1124 127.504 35.9126C130.539 19.38 119.59 3.52284 103.058 0.497887C100.965 0.11739 98.834 -0.0443208 96.7127 0.0127537H21.6883Z" fill="white"/>
<path d="M647.009 0.0970459L625.32 137H652.088L673.796 0.0970459H647.009Z" fill="#5252FA"/>
<path d="M562.642 27.0743H612.934L625.319 0.0970459H566.504C545.586 0.829502 527.988 16.0113 524.221 36.6057L508.316 137H535.084L543.788 82.037H601.386L605.657 55.0598H548.069L550.894 37.2145C551.94 31.4975 556.829 27.274 562.642 27.0743Z" fill="#5252FA"/>
<path d="M688.804 0.0970459L684.532 27.0743H723.686L721.755 40.4487L706.468 137H733.236L750.644 27.0743H789.987L794.258 0.0970459H688.804Z" fill="#5252FA"/>
</svg>
